<svg width="135" height="135" viewBox="0 0 135 135" fill="none" xmlns="http://www.w3.org/2000/svg">
<path d="M41.2387 115.895L40.5587 106.755L15.6487 108.615C15.2187 107.995 14.8687 107.605 14.8687 107.605C14.8687 107.605 7.69869 100.085 4.69869 103.575C1.68869 107.065 9.18869 117.905 12.3087 118.015C12.7287 118.025 13.1187 118.005 13.4787 117.945V117.965L41.2487 115.895H41.2387Z" fill="#171717"/>
<mask id="mask0_983_8218" style="mask-type:luminance" maskUnits="userSpaceOnUse" x="4" y="102" width="38" height="17">
<path d="M41.2387 115.895L40.5587 106.755L15.6487 108.615C15.2187 107.995 14.8687 107.605 14.8687 107.605C14.8687 107.605 7.69869 100.085 4.69869 103.575C1.68869 107.065 9.18869 117.905 12.3087 118.015C12.7287 118.025 13.1187 118.005 13.4787 117.945V117.965L41.2487 115.895H41.2387Z" fill="white"/>
</mask>
<g mask="url(#mask0_983_8218)">
<path d="M29.8577 131.645L27.581 101.08L-2.98438 103.356L-0.707617 133.922L29.8577 131.645Z" fill="#00DDA8"/>
</g>
<path d="M26.2083 115.295C26.7219 115.295 27.1383 114.879 27.1383 114.365C27.1383 113.851 26.7219 113.435 26.2083 113.435C25.6947 113.435 25.2783 113.851 25.2783 114.365C25.2783 114.879 25.6947 115.295 26.2083 115.295Z" fill="#4D4D4D"/>
<path d="M23.4691 115.505C23.9827 115.505 24.3991 115.089 24.3991 114.575C24.3991 114.061 23.9827 113.645 23.4691 113.645C22.9554 113.645 22.5391 114.061 22.5391 114.575C22.5391 115.089 22.9554 115.505 23.4691 115.505Z" fill="#4D4D4D"/>
<path d="M82.7186 31.345L20.0186 133.205L105.749 122.375L114.659 87.535L82.7286 31.335L82.7186 31.345Z" fill="#D968D3"/>
<path d="M41.4492 92.955C43.1592 92.985 59.8092 93.185 62.0892 86.275C62.8092 84.105 62.4392 80.185 60.8492 79.585C59.7392 79.165 57.8592 80.285 57.8592 81.255C57.8592 83.395 66.9592 86.255 75.2792 85.455C83.4292 84.675 92.6292 80.205 92.4692 76.285C92.3892 74.305 89.8992 72.165 88.1492 72.505C86.5792 72.815 85.1592 75.195 85.6192 76.925C86.6792 81.005 98.7892 83.945 106.939 79.065C110.649 76.845 112.619 73.565 113.559 71.645" stroke="white" stroke-miterlimit="10"/>
<path d="M68.3791 60.5753L132.599 40.5053L74.2491 6.91531C71.2291 4.84531 67.8491 3.28531 64.2591 2.57531C54.9691 0.745303 44.8891 3.25531 37.3491 10.4753C26.8391 20.5353 25.0391 36.9953 33.1191 49.0853C38.9391 57.7953 48.2691 62.4353 57.7691 62.6253C61.4091 62.7053 65.0091 61.9153 68.3891 60.5653L68.3791 60.5753Z" fill="#00DDA8"/>
<path d="M57.2282 56.6454C70.6598 56.6454 81.5482 45.7569 81.5482 32.3254C81.5482 18.8938 70.6598 8.00537 57.2282 8.00537C43.7966 8.00537 32.9082 18.8938 32.9082 32.3254C32.9082 45.7569 43.7966 56.6454 57.2282 56.6454Z" fill="#D968D3"/>
<mask id="mask1_983_8218" style="mask-type:luminance" maskUnits="userSpaceOnUse" x="32" y="8" width="50" height="49">
<path d="M57.2282 56.6454C70.6598 56.6454 81.5482 45.7569 81.5482 32.3254C81.5482 18.8938 70.6598 8.00537 57.2282 8.00537C43.7966 8.00537 32.9082 18.8938 32.9082 32.3254C32.9082 45.7569 43.7966 56.6454 57.2282 56.6454Z" fill="white"/>
</mask>
<g mask="url(#mask1_983_8218)">
<path d="M78.3677 14.0654L67.5077 6.80542L43.7277 8.45542L33.1577 20.4254L30.4277 20.4554C30.4277 20.4554 33.6877 37.8954 42.6277 22.3654C43.7977 26.3754 47.2377 34.3554 54.0977 22.8054C55.3977 26.9754 58.9277 34.1554 65.7277 22.3054H65.7477C66.9777 26.5554 70.7977 35.5154 78.6177 20.2954L78.3677 14.0554V14.0654Z" fill="#171717"/>
</g>
<path d="M36.1086 38.055C36.1086 38.055 38.0886 33.085 42.2686 33.085C46.4486 33.085 48.3386 38.055 48.3386 38.055C48.3386 38.055 47.2386 43.195 42.2186 43.195C37.1986 43.195 36.0986 38.055 36.0986 38.055H36.1086Z" fill="white"/>
<mask id="mask2_983_8218" style="mask-type:luminance" maskUnits="userSpaceOnUse" x="36" y="33" width="13" height="11">
<path d="M36.1086 38.055C36.1086 38.055 38.0886 33.085 42.2686 33.085C46.4486 33.085 48.3386 38.055 48.3386 38.055C48.3386 38.055 47.2386 43.195 42.2186 43.195C37.1986 43.195 36.0986 38.055 36.0986 38.055H36.1086Z" fill="white"/>
</mask>
<g mask="url(#mask2_983_8218)">
<path d="M42.8185 47.555C41.5585 37.915 42.8185 29.105 42.8185 29.105L35.1885 33.695L34.4785 40.325L42.8185 47.555Z" fill="#171717"/>
</g>
<path d="M51.1086 38.055C51.1086 38.055 53.0886 33.085 57.2686 33.085C61.4486 33.085 63.3386 38.055 63.3386 38.055C63.3386 38.055 62.2386 43.195 57.2186 43.195C52.1986 43.195 51.0986 38.055 51.0986 38.055H51.1086Z" fill="white"/>
<mask id="mask3_983_8218" style="mask-type:luminance" maskUnits="userSpaceOnUse" x="51" y="33" width="13" height="11">
<path d="M51.1086 38.055C51.1086 38.055 53.0886 33.085 57.2686 33.085C61.4486 33.085 63.3386 38.055 63.3386 38.055C63.3386 38.055 62.2386 43.195 57.2186 43.195C52.1986 43.195 51.0986 38.055 51.0986 38.055H51.1086Z" fill="white"/>
</mask>
<g mask="url(#mask3_983_8218)">
<path d="M57.8185 47.555C56.5585 37.915 57.8185 29.105 57.8185 29.105L50.1885 33.695L49.4785 40.325L57.8185 47.555Z" fill="#171717"/>
</g>
<path d="M49.5784 45.355C51.655 45.355 53.3384 43.6716 53.3384 41.595C53.3384 39.5184 51.655 37.835 49.5784 37.835C47.5018 37.835 45.8184 39.5184 45.8184 41.595C45.8184 43.6716 47.5018 45.355 49.5784 45.355Z" fill="#00DDA8"/>
<path d="M46.8691 47.5953C47.0091 50.5253 49.5491 52.2853 51.3591 51.8953C53.0491 51.5353 54.5491 49.2153 53.8891 46.6353" stroke="white" stroke-miterlimit="10" stroke-linecap="round"/>
<path d="M49.5783 125.925L48.2383 116.865L23.5283 120.525C23.0583 119.935 22.6783 119.575 22.6783 119.575C22.6783 119.575 14.9883 112.595 12.2383 116.295C9.49832 119.995 17.7483 130.265 20.8683 130.145C21.2883 130.125 21.6683 130.075 22.0283 129.995V130.015L49.5783 125.935V125.925Z" fill="#171717"/>
<mask id="mask4_983_8218" style="mask-type:luminance" maskUnits="userSpaceOnUse" x="11" y="115" width="39" height="16">
<path d="M49.5783 125.925L48.2383 116.865L23.5283 120.525C23.0583 119.935 22.6783 119.575 22.6783 119.575C22.6783 119.575 14.9883 112.595 12.2383 116.295C9.49832 119.995 17.7483 130.265 20.8683 130.145C21.2883 130.125 21.6683 130.075 22.0283 129.995V130.015L49.5783 125.935V125.925Z" fill="white"/>
</mask>
<g mask="url(#mask4_983_8218)">
<path d="M39.3706 142.462L34.8826 112.143L4.56299 116.631L9.05102 146.95L39.3706 142.462Z" fill="#00DDA8"/>
</g>
<path d="M34.4681 126.425C34.9817 126.425 35.3981 126.009 35.3981 125.495C35.3981 124.981 34.9817 124.565 34.4681 124.565C33.9545 124.565 33.5381 124.981 33.5381 125.495C33.5381 126.009 33.9545 126.425 34.4681 126.425Z" fill="#4D4D4D"/>
<path d="M31.7581 126.825C32.2718 126.825 32.6881 126.409 32.6881 125.895C32.6881 125.381 32.2718 124.965 31.7581 124.965C31.2445 124.965 30.8281 125.381 30.8281 125.895C30.8281 126.409 31.2445 126.825 31.7581 126.825Z" fill="#4D4D4D"/>
</svg>
