<svg width="135" height="135" viewBox="0 0 135 135" fill="none" xmlns="http://www.w3.org/2000/svg">
<path d="M33.3004 101.63L39.7804 95.1498L22.1204 77.4898C22.3104 76.7598 22.3804 76.2398 22.3804 76.2398C22.3804 76.2398 23.4004 65.8998 18.7904 65.8998C14.1804 65.8998 10.8604 78.6498 12.8204 81.0798C13.0804 81.4098 13.3604 81.6798 13.6304 81.9198L13.6104 81.9398L33.3004 101.63Z" fill="#00DDA8"/>
<mask id="mask0_983_8127" style="mask-type:luminance" maskUnits="userSpaceOnUse" x="12" y="65" width="28" height="37">
<path d="M33.3004 101.63L39.7804 95.1498L22.1204 77.4898C22.3104 76.7598 22.3804 76.2398 22.3804 76.2398C22.3804 76.2398 23.4004 65.8998 18.7904 65.8998C14.1804 65.8998 10.8604 78.6498 12.8204 81.0798C13.0804 81.4098 13.3604 81.6798 13.6304 81.9198L13.6104 81.9398L33.3004 101.63Z" fill="white"/>
</mask>
<g mask="url(#mask0_983_8127)">
<path d="M13.9335 103.296L35.6063 81.6232L13.9335 59.9503L-7.73926 81.6232L13.9335 103.296Z" fill="#171717"/>
</g>
<path d="M24.6404 88.3198C24.1268 88.3198 23.7104 88.7362 23.7104 89.2498C23.7104 89.7634 24.1268 90.1798 24.6404 90.1798C25.154 90.1798 25.5704 89.7634 25.5704 89.2498C25.5704 88.7362 25.154 88.3198 24.6404 88.3198Z" fill="#4D4D4D"/>
<path d="M22.7 86.3797C22.1864 86.3797 21.77 86.7961 21.77 87.3097C21.77 87.8234 22.1864 88.2397 22.7 88.2397C23.2136 88.2397 23.63 87.8234 23.63 87.3097C23.63 86.7961 23.2136 86.3797 22.7 86.3797Z" fill="#4D4D4D"/>
<path d="M91.0703 115.57L110.11 72.2098L84.7303 30.9598L77.3303 59.5098L19.1603 56.3398L32.9103 90.1798L73.1003 79.5998V96.5198L17.0503 90.1698L24.4503 133.55L91.0703 115.57Z" fill="#FF5858"/>
<path d="M32.4202 116.01L36.2802 107.7L13.6302 97.1598C13.5602 96.4098 13.4502 95.8998 13.4502 95.8998C13.4502 95.8998 10.8602 85.8398 6.5302 87.4198C2.2002 88.9998 3.45019 102.12 6.13019 103.73C6.49019 103.95 6.84019 104.11 7.18019 104.24V104.26L32.4202 116V116.01Z" fill="#00DDA8"/>
<mask id="mask1_983_8127" style="mask-type:luminance" maskUnits="userSpaceOnUse" x="3" y="87" width="34" height="30">
<path d="M32.4202 116.01L36.2802 107.7L13.6302 97.1598C13.5602 96.4098 13.4502 95.8998 13.4502 95.8998C13.4502 95.8998 10.8602 85.8398 6.5302 87.4198C2.2002 88.9998 3.45019 102.12 6.13019 103.73C6.49019 103.95 6.84019 104.11 7.18019 104.24V104.26L32.4202 116V116.01Z" fill="white"/>
</mask>
<g mask="url(#mask1_983_8127)">
<path d="M14.7916 124.212L27.7206 96.4221L-0.0690699 83.4931L-12.998 111.283L14.7916 124.212Z" fill="#171717"/>
</g>
<path d="M20.0408 106.41C19.5272 106.41 19.1108 106.826 19.1108 107.34C19.1108 107.853 19.5272 108.27 20.0408 108.27C20.5544 108.27 20.9708 107.853 20.9708 107.34C20.9708 106.826 20.5544 106.41 20.0408 106.41Z" fill="#4D4D4D"/>
<path d="M17.5506 105.26C17.0369 105.26 16.6206 105.676 16.6206 106.19C16.6206 106.703 17.0369 107.12 17.5506 107.12C18.0642 107.12 18.4806 106.703 18.4806 106.19C18.4806 105.676 18.0642 105.26 17.5506 105.26Z" fill="#4D4D4D"/>
<path d="M99.04 92.5797V87.8197" stroke="white" stroke-miterlimit="10"/>
<path d="M93.6699 87.1998V82.4398" stroke="white" stroke-miterlimit="10"/>
<path d="M88.29 81.8297V77.0697" stroke="white" stroke-miterlimit="10"/>
<path d="M82.9199 76.4597V71.6997" stroke="white" stroke-miterlimit="10"/>
<path d="M77.5498 71.0797V66.3197" stroke="white" stroke-miterlimit="10"/>
<path d="M93.6699 98.9198V94.1598" stroke="white" stroke-miterlimit="10"/>
<path d="M88.29 93.5498V88.7898" stroke="white" stroke-miterlimit="10"/>
<path d="M82.9199 88.1698V83.4098" stroke="white" stroke-miterlimit="10"/>
<path d="M77.5498 82.7998V78.0398" stroke="white" stroke-miterlimit="10"/>
<path d="M93.6699 110.64V105.88" stroke="white" stroke-miterlimit="10"/>
<path d="M88.29 105.26V100.5" stroke="white" stroke-miterlimit="10"/>
<path d="M99.04 68.6998V63.9398" stroke="white" stroke-miterlimit="10"/>
<path d="M99.04 80.4198V75.6598" stroke="white" stroke-miterlimit="10"/>
<path d="M93.6699 75.0498V70.2898" stroke="white" stroke-miterlimit="10"/>
<path d="M88.29 69.6798V64.9198" stroke="white" stroke-miterlimit="10"/>
<path d="M82.9199 99.8898V95.1298" stroke="white" stroke-miterlimit="10"/>
<path d="M77.5498 94.5198V89.7598" stroke="white" stroke-miterlimit="10"/>
<path d="M64.7696 62.2898L132.05 63.3298L87.1396 13.1598C84.9196 10.2498 82.1996 7.70982 79.0096 5.90982C70.7596 1.25982 60.3996 0.489819 50.9796 4.98982C37.8496 11.2498 30.9796 26.3198 34.8696 40.3398C37.6696 50.4298 45.0796 57.7598 54.0396 60.9198C57.4696 62.1298 61.1396 62.5098 64.7696 62.2898Z" fill="#00DDA8"/>
<path d="M64.6398 8.33984C51.2082 8.33984 40.3198 19.2283 40.3198 32.6599C40.3198 46.0914 51.2082 56.9799 64.6398 56.9799C78.0713 56.9799 88.9598 46.0914 88.9598 32.6599C88.9598 19.2283 78.0713 8.33984 64.6398 8.33984Z" fill="#FF5858"/>
<mask id="mask2_983_8127" style="mask-type:luminance" maskUnits="userSpaceOnUse" x="40" y="8" width="49" height="49">
<path d="M64.6398 8.33984C51.2082 8.33984 40.3198 19.2283 40.3198 32.6599C40.3198 46.0914 51.2082 56.9799 64.6398 56.9799C78.0713 56.9799 88.9598 46.0914 88.9598 32.6599C88.9598 19.2283 78.0713 8.33984 64.6398 8.33984Z" fill="white"/>
</mask>
<g mask="url(#mask2_983_8127)">
<path d="M85.7803 14.3998L74.9203 7.13983L51.1403 8.78982L40.5703 20.7598L37.8403 20.7898C37.8403 20.7898 41.1003 38.2298 50.0403 22.6998C51.2103 26.7098 54.6503 34.6898 61.5103 23.1398C62.8103 27.3098 66.3403 34.4898 73.1403 22.6398H73.1603C74.3903 26.8898 78.2103 35.8498 86.0303 20.6298L85.7803 14.3898V14.3998Z" fill="#171717"/>
</g>
<path d="M52.0401 44.0899C55.2801 42.0399 54.1401 36.8499 54.0101 36.2899C53.9101 35.8699 52.6701 30.8599 49.3101 30.4599C46.3201 30.0999 43.4701 33.6199 43.0201 36.8999C42.7201 39.0799 43.3501 42.1799 45.9001 43.7899C47.5501 44.8399 50.1001 45.3199 52.0401 44.0899Z" fill="white"/>
<mask id="mask3_983_8127" style="mask-type:luminance" maskUnits="userSpaceOnUse" x="42" y="30" width="13" height="15">
<path d="M52.0401 44.0899C55.2801 42.0399 54.1401 36.8499 54.0101 36.2899C53.9101 35.8699 52.6701 30.8599 49.3101 30.4599C46.3201 30.0999 43.4701 33.6199 43.0201 36.8999C42.7201 39.0799 43.3501 42.1799 45.9001 43.7899C47.5501 44.8399 50.1001 45.3199 52.0401 44.0899Z" fill="white"/>
</mask>
<g mask="url(#mask3_983_8127)">
<path d="M42.6601 35.34C42.5301 37.25 43.6501 39.78 45.8001 40.17C47.9601 40.56 49.81 38.54 50.43 36.83C51.31 34.42 50.2901 31.2 48.2701 30.55C46.0201 29.83 42.8601 32.42 42.6601 35.34Z" fill="#171717"/>
</g>
<path d="M67.4795 44.0899C70.7195 42.0399 69.5795 36.8499 69.4495 36.2899C69.3495 35.8699 68.1095 30.8599 64.7495 30.4599C61.7595 30.0999 58.9095 33.6199 58.4595 36.8999C58.1595 39.0799 58.7895 42.1799 61.3395 43.7899C62.9895 44.8399 65.5395 45.3199 67.4795 44.0899Z" fill="white"/>
<mask id="mask4_983_8127" style="mask-type:luminance" maskUnits="userSpaceOnUse" x="58" y="30" width="12" height="15">
<path d="M67.4795 44.0899C70.7195 42.0399 69.5795 36.8499 69.4495 36.2899C69.3495 35.8699 68.1095 30.8599 64.7495 30.4599C61.7595 30.0999 58.9095 33.6199 58.4595 36.8999C58.1595 39.0799 58.7895 42.1799 61.3395 43.7899C62.9895 44.8399 65.5395 45.3199 67.4795 44.0899Z" fill="white"/>
</mask>
<g mask="url(#mask4_983_8127)">
<path d="M58.0995 35.34C57.9695 37.25 59.0895 39.78 61.2395 40.17C63.3995 40.56 65.2495 38.54 65.8695 36.83C66.7495 34.42 65.7295 31.2 63.7095 30.55C61.4595 29.83 58.2995 32.42 58.0995 35.34Z" fill="#171717"/>
</g>
<path d="M56.1902 38.1099C54.1136 38.1099 52.4302 39.7933 52.4302 41.8699C52.4302 43.9465 54.1136 45.6299 56.1902 45.6299C58.2668 45.6299 59.9502 43.9465 59.9502 41.8699C59.9502 39.7933 58.2668 38.1099 56.1902 38.1099Z" fill="#00DDA8"/>
</svg>
