<svg width="135" height="135" viewBox="0 0 135 135" fill="none" xmlns="http://www.w3.org/2000/svg">
<path d="M51.2201 109.39L50.5401 100.25L25.6301 102.11C25.2001 101.49 24.8501 101.1 24.8501 101.1C24.8501 101.1 17.6801 93.58 14.6801 97.07C11.6701 100.56 19.1701 111.4 22.2901 111.51C22.7101 111.52 23.1001 111.5 23.4601 111.44V111.46L51.2301 109.39H51.2201Z" fill="black"/>
<mask id="mask0_983_8182" style="mask-type:luminance" maskUnits="userSpaceOnUse" x="13" y="96" width="39" height="16">
<path d="M51.2201 109.39L50.5401 100.25L25.6301 102.11C25.2001 101.49 24.8501 101.1 24.8501 101.1C24.8501 101.1 17.6801 93.58 14.6801 97.07C11.6701 100.56 19.1701 111.4 22.2901 111.51C22.7101 111.52 23.1001 111.5 23.4601 111.44V111.46L51.2301 109.39H51.2201Z" fill="white"/>
</mask>
<g mask="url(#mask0_983_8182)">
<path d="M39.847 125.151L37.5702 94.5857L7.00488 96.8625L9.28164 127.428L39.847 125.151Z" fill="#00DDA8"/>
</g>
<path d="M36.1898 108.8C36.7034 108.8 37.1198 108.384 37.1198 107.87C37.1198 107.356 36.7034 106.94 36.1898 106.94C35.6761 106.94 35.2598 107.356 35.2598 107.87C35.2598 108.384 35.6761 108.8 36.1898 108.8Z" fill="#4D4D4D"/>
<path d="M33.4505 109C33.9641 109 34.3805 108.584 34.3805 108.07C34.3805 107.556 33.9641 107.14 33.4505 107.14C32.9369 107.14 32.5205 107.556 32.5205 108.07C32.5205 108.584 32.9369 109 33.4505 109Z" fill="#4D4D4D"/>
<path d="M128.66 26.5601L113.48 93.3601L43.6402 87.2901L58.8202 99.4401L83.2502 119.61L55.4102 132.66L43.6402 87.3001H40.6002L31.4902 59.9701L128.66 26.5601Z" fill="#6F50CB"/>
<path d="M59.4802 120.63L56.2202 112.07L32.8702 120.96C32.2802 120.49 31.8402 120.21 31.8402 120.21C31.8402 120.21 22.8302 115.05 20.9402 119.25C19.0502 123.45 29.3302 131.7 32.3502 130.92C32.7602 130.81 33.1202 130.68 33.4502 130.52V130.54L59.4802 120.63Z" fill="black"/>
<mask id="mask1_983_8182" style="mask-type:luminance" maskUnits="userSpaceOnUse" x="20" y="112" width="40" height="19">
<path d="M59.4802 120.63L56.2202 112.07L32.8702 120.96C32.2802 120.49 31.8402 120.21 31.8402 120.21C31.8402 120.21 22.8302 115.05 20.9402 119.25C19.0502 123.45 29.3302 131.7 32.3502 130.92C32.7602 130.81 33.1202 130.68 33.4502 130.52V130.54L59.4802 120.63Z" fill="white"/>
</mask>
<g mask="url(#mask1_983_8182)">
<path d="M53.0659 138.993L42.1619 110.348L13.5171 121.252L24.4211 149.897L53.0659 138.993Z" fill="#00DDA8"/>
</g>
<path d="M44.6302 124.39C45.1438 124.39 45.5602 123.974 45.5602 123.46C45.5602 122.946 45.1438 122.53 44.6302 122.53C44.1166 122.53 43.7002 122.946 43.7002 123.46C43.7002 123.974 44.1166 124.39 44.6302 124.39Z" fill="#4D4D4D"/>
<path d="M42.0706 125.37C42.5843 125.37 43.0006 124.954 43.0006 124.44C43.0006 123.926 42.5843 123.51 42.0706 123.51C41.557 123.51 41.1406 123.926 41.1406 124.44C41.1406 124.954 41.557 125.37 42.0706 125.37Z" fill="#4D4D4D"/>
<path d="M93.778 72.1312L64.8701 55.4412L63.2451 58.2557L92.153 74.9457L93.778 72.1312Z" fill="white"/>
<path d="M47.9396 61.85L114.61 52.78L62.6796 9.92005C60.0396 7.37005 56.9796 5.27005 53.5496 3.98005C44.6996 0.620049 34.3396 1.42005 25.6996 7.28005C13.6596 15.44 9.12962 31.37 15.0796 44.64C19.3596 54.2 27.7896 60.3301 37.1196 62.1101C40.6896 62.7901 44.3796 62.62 47.9296 61.85H47.9396Z" fill="#00DDA8"/>
<path d="M42.07 56.5901C55.5016 56.5901 66.39 45.7016 66.39 32.2701C66.39 18.8385 55.5016 7.95007 42.07 7.95007C28.6384 7.95007 17.75 18.8385 17.75 32.2701C17.75 45.7016 28.6384 56.5901 42.07 56.5901Z" fill="#6F50CB"/>
<mask id="mask2_983_8182" style="mask-type:luminance" maskUnits="userSpaceOnUse" x="17" y="7" width="50" height="50">
<path d="M42.07 56.5901C55.5016 56.5901 66.39 45.7016 66.39 32.2701C66.39 18.8385 55.5016 7.95007 42.07 7.95007C28.6384 7.95007 17.75 18.8385 17.75 32.2701C17.75 45.7016 28.6384 56.5901 42.07 56.5901Z" fill="white"/>
</mask>
<g mask="url(#mask2_983_8182)">
<path d="M63.1998 14.0001L52.3398 6.74011L28.5598 8.39011L17.9898 20.3601L15.2598 20.3901C15.2598 20.3901 18.5198 37.8301 27.4598 22.3001C28.6298 26.3101 32.0698 34.2901 38.9298 22.7401C40.2298 26.9101 43.7598 34.0901 50.5598 22.2401H50.5798C51.8098 26.4901 55.6298 35.4501 63.4498 20.2301L63.1998 13.9901V14.0001Z" fill="black"/>
</g>
<path d="M26.5896 30.16H26.0496C23.6141 30.16 21.6396 32.1345 21.6396 34.57V38.51C21.6396 40.9456 23.6141 42.92 26.0496 42.92H26.5896C29.0252 42.92 30.9996 40.9456 30.9996 38.51V34.57C30.9996 32.1345 29.0252 30.16 26.5896 30.16Z" fill="white"/>
<path d="M29.1465 36.5306L25.3211 32.7052L21.4956 36.5306L25.3211 40.3561L29.1465 36.5306Z" fill="black"/>
<path d="M40.0096 30.16H39.4696C37.034 30.16 35.0596 32.1345 35.0596 34.57V38.51C35.0596 40.9456 37.034 42.92 39.4696 42.92H40.0096C42.4451 42.92 44.4196 40.9456 44.4196 38.51V34.57C44.4196 32.1345 42.4451 30.16 40.0096 30.16Z" fill="white"/>
<path d="M42.5659 36.53L38.7404 32.7046L34.915 36.53L38.7404 40.3555L42.5659 36.53Z" fill="black"/>
<path d="M32.8 45.18C34.8766 45.18 36.56 43.4966 36.56 41.42C36.56 39.3434 34.8766 37.66 32.8 37.66C30.7234 37.66 29.04 39.3434 29.04 41.42C29.04 43.4966 30.7234 45.18 32.8 45.18Z" fill="#00DDA8"/>
</svg>
