<svg width="135" height="135" viewBox="0 0 135 135" fill="none" xmlns="http://www.w3.org/2000/svg">
<path d="M51.1701 113.87V104.71H26.1901C25.8101 104.06 25.4901 103.64 25.4901 103.64C25.4901 103.64 18.9001 95.61 15.6401 98.87C12.3801 102.13 19.0501 113.49 22.1501 113.83C22.5701 113.88 22.9501 113.88 23.3201 113.85V113.87H51.1601H51.1701Z" fill="#00DDA8"/>
<mask id="mask0_983_8090" style="mask-type:luminance" maskUnits="userSpaceOnUse" x="14" y="98" width="38" height="16">
<path d="M51.1701 113.87V104.71H26.1901C25.8101 104.06 25.4901 103.64 25.4901 103.64C25.4901 103.64 18.9001 95.61 15.6401 98.87C12.3801 102.13 19.0501 113.49 22.1501 113.83C22.5701 113.88 22.9501 113.88 23.3201 113.85V113.87H51.1601H51.1701Z" fill="white"/>
</mask>
<g mask="url(#mask0_983_8090)">
<path d="M38.6603 128.73V98.0801H8.01025V128.73H38.6603Z" fill="#171717"/>
</g>
<path d="M36.2904 112.16C36.804 112.16 37.2204 111.744 37.2204 111.23C37.2204 110.716 36.804 110.3 36.2904 110.3C35.7767 110.3 35.3604 110.716 35.3604 111.23C35.3604 111.744 35.7767 112.16 36.2904 112.16Z" fill="#4D4D4D"/>
<path d="M33.5501 112.16C34.0637 112.16 34.4801 111.744 34.4801 111.23C34.4801 110.716 34.0637 110.3 33.5501 110.3C33.0365 110.3 32.6201 110.716 32.6201 111.23C32.6201 111.744 33.0365 112.16 33.5501 112.16Z" fill="#4D4D4D"/>
<path d="M35.8398 48.23L51.9498 132.84L95.7998 112.26L105.64 69.96L35.8398 48.23Z" fill="#508FFF"/>
<path d="M66.6094 65.63L88.1594 14.87L127.949 30.8L124.629 54.69L66.6094 65.64V65.63Z" fill="#508FFF"/>
<path d="M108.549 42.289L86.952 37.1479L86.0142 41.0879L107.611 46.2289L108.549 42.289Z" fill="white"/>
<path d="M82.946 86.594L61.3495 81.453L60.4116 85.3929L82.0081 90.5339L82.946 86.594Z" fill="white"/>
<path d="M43.2095 63.29L110.49 64.34L65.5795 14.17C63.3595 11.26 60.6395 8.72001 57.4495 6.92001C49.1995 2.27001 38.8395 1.50001 29.4195 6.00001C16.2895 12.26 9.41953 27.33 13.3095 41.34C16.1095 51.43 23.5195 58.76 32.4795 61.92C35.9095 63.13 39.5795 63.51 43.2095 63.29Z" fill="#00DDA8"/>
<path d="M42.28 57.99C55.7115 57.99 66.6 47.1015 66.6 33.67C66.6 20.2384 55.7115 9.34998 42.28 9.34998C28.8484 9.34998 17.96 20.2384 17.96 33.67C17.96 47.1015 28.8484 57.99 42.28 57.99Z" fill="#508FFF"/>
<mask id="mask1_983_8090" style="mask-type:luminance" maskUnits="userSpaceOnUse" x="17" y="9" width="50" height="49">
<path d="M42.28 57.99C55.7115 57.99 66.6 47.1015 66.6 33.67C66.6 20.2384 55.7115 9.34998 42.28 9.34998C28.8484 9.34998 17.96 20.2384 17.96 33.67C17.96 47.1015 28.8484 57.99 42.28 57.99Z" fill="white"/>
</mask>
<g mask="url(#mask1_983_8090)">
<path d="M63.4195 15.4L52.5595 8.14001L28.7795 9.79002L18.2095 21.76L15.4795 21.79C15.4795 21.79 18.7395 39.23 27.6795 23.7C28.8495 27.71 32.2895 35.69 39.1495 24.14C40.4495 28.31 43.9795 35.49 50.7795 23.64H50.7995C52.0295 27.89 55.8495 36.85 63.6695 21.63L63.4195 15.39V15.4Z" fill="#171717"/>
</g>
<path d="M26.84 43.92C30.2255 43.92 32.97 41.1755 32.97 37.79C32.97 34.4045 30.2255 31.66 26.84 31.66C23.4545 31.66 20.71 34.4045 20.71 37.79C20.71 41.1755 23.4545 43.92 26.84 43.92Z" fill="white"/>
<path d="M26.8391 39.84C27.9712 39.84 28.8891 38.9222 28.8891 37.79C28.8891 36.6578 27.9712 35.74 26.8391 35.74C25.7069 35.74 24.7891 36.6578 24.7891 37.79C24.7891 38.9222 25.7069 39.84 26.8391 39.84Z" fill="#171717"/>
<path d="M41.6398 43.92C45.0253 43.92 47.7698 41.1755 47.7698 37.79C47.7698 34.4045 45.0253 31.66 41.6398 31.66C38.2543 31.66 35.5098 34.4045 35.5098 37.79C35.5098 41.1755 38.2543 43.92 41.6398 43.92Z" fill="white"/>
<path d="M41.6398 39.84C42.772 39.84 43.6898 38.9222 43.6898 37.79C43.6898 36.6578 42.772 35.74 41.6398 35.74C40.5077 35.74 39.5898 36.6578 39.5898 37.79C39.5898 38.9222 40.5077 39.84 41.6398 39.84Z" fill="#171717"/>
<path d="M34.6291 46.7001C36.7057 46.7001 38.3891 45.0166 38.3891 42.9401C38.3891 40.8635 36.7057 39.1801 34.6291 39.1801C32.5525 39.1801 30.8691 40.8635 30.8691 42.9401C30.8691 45.0166 32.5525 46.7001 34.6291 46.7001Z" fill="#00DDA8"/>
<path d="M59.84 126.08V116.92H34.86C34.48 116.27 34.16 115.85 34.16 115.85C34.16 115.85 27.57 107.82 24.31 111.08C21.05 114.34 27.72 125.7 30.82 126.04C31.24 126.09 31.62 126.09 31.99 126.06V126.08H59.83H59.84Z" fill="#00DDA8"/>
<mask id="mask2_983_8090" style="mask-type:luminance" maskUnits="userSpaceOnUse" x="23" y="110" width="37" height="17">
<path d="M59.84 126.08V116.92H34.86C34.48 116.27 34.16 115.85 34.16 115.85C34.16 115.85 27.57 107.82 24.31 111.08C21.05 114.34 27.72 125.7 30.82 126.04C31.24 126.09 31.62 126.09 31.99 126.06V126.08H59.83H59.84Z" fill="white"/>
</mask>
<g mask="url(#mask2_983_8090)">
<path d="M47.3302 140.94V110.29H16.6802V140.94H47.3302Z" fill="#171717"/>
</g>
<path d="M44.9603 124.37C45.4739 124.37 45.8903 123.954 45.8903 123.44C45.8903 122.926 45.4739 122.51 44.9603 122.51C44.4466 122.51 44.0303 122.926 44.0303 123.44C44.0303 123.954 44.4466 124.37 44.9603 124.37Z" fill="#4D4D4D"/>
<path d="M42.22 124.37C42.7337 124.37 43.15 123.954 43.15 123.44C43.15 122.926 42.7337 122.51 42.22 122.51C41.7064 122.51 41.29 122.926 41.29 123.44C41.29 123.954 41.7064 124.37 42.22 124.37Z" fill="#4D4D4D"/>
</svg>
