<svg width="21" height="20" viewBox="0 0 21 20" fill="none" xmlns="http://www.w3.org/2000/svg">
<path d="M8.3621 7.86234V6.27377C8.3621 5.63828 8.3621 5.32053 8.48577 5.07781C8.59456 4.8643 8.76815 4.69071 8.98165 4.58193C9.22438 4.45825 9.54212 4.45825 10.1776 4.45825H14.4895C15.1249 4.45825 15.4427 4.45825 15.6854 4.58193C15.8989 4.69071 16.0725 4.8643 16.1813 5.07781C16.305 5.32053 16.305 5.63828 16.305 6.27377V10.5856C16.305 11.2211 16.305 11.5388 16.1813 11.7816C16.0725 11.9951 15.8989 12.1687 15.6854 12.2775C15.4427 12.4011 15.1249 12.4011 14.4895 12.4011H12.9009M6.77352 15.8052H11.0854C11.7209 15.8052 12.0386 15.8052 12.2813 15.6815C12.4948 15.5728 12.6684 15.3992 12.7772 15.1857C12.9009 14.9429 12.9009 14.6252 12.9009 13.9897V9.67786C12.9009 9.04237 12.9009 8.72462 12.7772 8.4819C12.6684 8.26839 12.4948 8.0948 12.2813 7.98602C12.0386 7.86234 11.7209 7.86234 11.0854 7.86234H6.77352C6.13803 7.86234 5.82029 7.86234 5.57756 7.98602C5.36406 8.0948 5.19047 8.26839 5.08168 8.4819C4.95801 8.72462 4.95801 9.04237 4.95801 9.67786V13.9897C4.95801 14.6252 4.95801 14.9429 5.08168 15.1857C5.19047 15.3992 5.36406 15.5728 5.57756 15.6815C5.82029 15.8052 6.13803 15.8052 6.77352 15.8052Z" stroke="#8032FF" stroke-width="0.95" stroke-linecap="round" stroke-linejoin="round"/>
</svg>
