<svg width="80" height="80" viewBox="0 0 80 80" fill="none" xmlns="http://www.w3.org/2000/svg">
<path d="M0 40C0 17.9086 17.9086 0 40 0C62.0914 0 80 17.9086 80 40C80 62.0914 62.0914 80 40 80C17.9086 80 0 62.0914 0 40Z" fill="#F0F0F5"/>
<path d="M55 27C55 18.7157 48.2843 12 40 12C31.7157 12 25 18.7157 25 27C25 35.2843 31.7157 42 40 42C48.2843 42 55 35.2843 55 27Z" fill="#CDCED6"/>
<path d="M39.7764 47.374C53.2627 47.374 64.2553 58.0413 64.7822 71.3984C57.968 76.7841 49.3599 80 40 80C30.4405 80 21.666 76.6444 14.7852 71.0498C15.4877 57.8562 26.4076 47.3741 39.7764 47.374Z" fill="#CDCED6"/>
</svg>
