<svg width="129" height="128" viewBox="0 0 129 128" fill="none" xmlns="http://www.w3.org/2000/svg">
<path d="M24.1269 104.62C11.2662 91.7593 11.1401 70.9094 23.9986 58.0509C34.8529 47.1966 51.4015 45.595 64.0322 53.0951L78.4928 38.6346L78.6446 38.4869C81.861 35.4297 86.9491 35.4808 90.1076 38.6392C93.2661 41.7977 93.3176 46.8863 90.2603 50.1026L90.1123 50.2541L77.8988 62.4675C83.4486 64.0071 89.6042 62.6009 93.907 58.2982C100.285 51.9203 100.3 41.471 93.788 34.9588C87.3776 28.5485 77.1522 28.4632 70.7507 34.5455L70.4487 34.8399C68.9761 36.3125 67.8541 37.9827 67.0684 39.7599C65.2349 43.9072 60.3856 45.7802 56.2368 43.9434C52.088 42.1065 50.2112 37.2557 52.0447 33.1084C53.6355 29.51 55.9014 26.1481 58.8291 23.2204L59.1321 22.9217C72.013 10.3648 92.6379 10.5884 105.398 23.3486C118.259 36.2094 118.385 57.0592 105.526 69.9177C94.6721 80.772 78.1236 82.3737 65.4928 74.8735L51.0323 89.3341C47.8262 92.5401 42.6261 92.538 39.4174 89.3294C36.2089 86.1207 36.2067 80.9206 39.4128 77.7145L51.6267 65.5007C46.0768 63.961 39.9209 65.3677 35.6181 69.6704C29.2402 76.0483 29.2249 86.4976 35.7371 93.0098C42.2492 99.5219 52.6986 99.5066 59.0764 93.1287C60.549 91.6561 61.6709 89.986 62.4567 88.2087C64.2902 84.0614 69.1395 82.1885 73.2883 84.0252C77.437 85.8621 79.3139 90.7129 77.4804 94.8602C75.8895 98.4587 73.6237 101.82 70.6959 104.748C57.8374 117.607 36.9876 117.481 24.1269 104.62Z" fill="#E1E1E8"/>
</svg>
