<svg width="121" height="120" viewBox="0 0 121 120" fill="none" xmlns="http://www.w3.org/2000/svg">
<path d="M85.5 50V40C85.5 26.1929 74.3071 15 60.5 15C46.6929 15 35.5 26.1929 35.5 40V50M60.5 72.5V82.5M44.5 105H76.5C84.9008 105 89.1012 105 92.3099 103.365C95.1323 101.927 97.427 99.6323 98.8651 96.8099C100.5 93.6012 100.5 89.4008 100.5 81V74C100.5 65.5992 100.5 61.3988 98.8651 58.1901C97.427 55.3677 95.1323 53.073 92.3099 51.6349C89.1012 50 84.9008 50 76.5 50H44.5C36.0992 50 31.8988 50 28.6901 51.6349C25.8677 53.073 23.573 55.3677 22.1349 58.1901C20.5 61.3988 20.5 65.5992 20.5 74V81C20.5 89.4008 20.5 93.6012 22.1349 96.8099C23.573 99.6323 25.8677 101.927 28.6901 103.365C31.8988 105 36.0992 105 44.5 105Z" stroke="#E1E1E8" stroke-width="14" stroke-linecap="round" stroke-linejoin="round"/>
</svg>
