<svg width="25" height="24" viewBox="0 0 25 24" fill="none" xmlns="http://www.w3.org/2000/svg">
<path d="M3.5 7.8C3.5 6.11984 3.5 5.27976 3.82698 4.63803C4.1146 4.07354 4.57354 3.6146 5.13803 3.32698C5.77976 3 6.61984 3 8.3 3H16.7C18.3802 3 19.2202 3 19.862 3.32698C20.4265 3.6146 20.8854 4.07354 21.173 4.63803C21.5 5.27976 21.5 6.11984 21.5 7.8V16.2C21.5 17.8802 21.5 18.7202 21.173 19.362C20.8854 19.9265 20.4265 20.3854 19.862 20.673C19.2202 21 18.3802 21 16.7 21H8.3C6.61984 21 5.77976 21 5.13803 20.673C4.57354 20.3854 4.1146 19.9265 3.82698 19.362C3.5 18.7202 3.5 17.8802 3.5 16.2V7.8Z" stroke="currentColor" stroke-width="1.5" stroke-linecap="round" stroke-linejoin="round"/>
<path fill-rule="evenodd" clip-rule="evenodd" d="M12.4966 9.06791C11.4969 7.8992 9.82987 7.58482 8.57735 8.65501C7.32482 9.72519 7.14848 11.5145 8.1321 12.7802C8.76211 13.5909 10.3756 15.0942 11.4542 16.0704C11.8127 16.3947 11.9919 16.5569 12.2066 16.622C12.3911 16.6779 12.602 16.6779 12.7866 16.622C13.0012 16.5569 13.1805 16.3947 13.5389 16.0704C14.6176 15.0942 16.231 13.5909 16.8611 12.7802C17.8447 11.5145 17.6899 9.71393 16.4158 8.65501C15.1417 7.59608 13.4963 7.8992 12.4966 9.06791Z" stroke="currentColor" stroke-width="1.5" stroke-linecap="round" stroke-linejoin="round"/>
</svg>
