<svg width="181" height="104" viewBox="0 0 181 104" fill="none" xmlns="http://www.w3.org/2000/svg">
<path d="M0 52C0 23.3578 23.077 0 51.7143 0C75.888 3.41752e-05 96.0992 16.6443 101.812 39.061L134.018 39.061L134.351 39.0658C141.337 39.243 146.946 44.9658 146.946 52C146.946 59.0343 141.337 64.758 134.351 64.9352L134.018 64.939L106.817 64.939C111.283 72.8333 119.703 78.122 129.286 78.1221C143.49 78.1221 155.143 66.5033 155.143 52C155.143 37.7234 143.851 26.2419 129.95 25.8865L129.286 25.8779C126.006 25.8779 122.897 26.4885 120.043 27.5926C113.383 30.1691 105.897 26.8547 103.323 20.1895C100.748 13.5242 104.06 6.03256 110.72 3.45599C116.499 1.22045 122.765 8.85148e-06 129.286 0L129.956 0.00476819C158.282 0.365595 181 23.5816 181 52C181 80.6422 157.923 104 129.286 104C105.112 104 84.9007 87.3558 79.1875 64.939H46.9823C39.8421 64.939 34.0538 59.146 34.0538 52C34.0538 44.8541 39.8421 39.061 46.9823 39.061L74.184 39.061C69.7183 31.1665 61.2971 25.878 51.7143 25.8779C37.5101 25.8779 25.8571 37.4967 25.8571 52C25.8572 66.5033 37.5101 78.1221 51.7143 78.1221C54.994 78.1221 58.1031 77.5116 60.9571 76.4074C67.6171 73.8309 75.1027 77.1453 77.6772 83.8105C80.2516 90.4758 76.9399 97.9674 70.2801 100.544C64.5015 102.78 58.2348 104 51.7143 104C23.0771 104 6.60301e-05 80.6421 0 52Z" fill="#8032FF"/>
</svg>
