<svg width="418" height="151" viewBox="0 0 418 151" fill="none" xmlns="http://www.w3.org/2000/svg">
<path d="M411.494 131.548C417.584 139.521 411.882 151 401.83 151C397.452 151 393.346 148.883 390.816 145.32L366.058 110.469L357.59 119.927V137.743C357.59 145.064 351.638 151 344.295 151C336.952 151 331 145.064 331 137.743V13.7558C331 6.43429 336.952 0.499023 344.295 0.499023C351.638 0.499023 357.59 6.43428 357.59 13.7558V84.6315L385.853 52.89C388.344 50.0928 391.916 48.492 395.668 48.492C405.909 48.492 411.298 60.6007 404.426 68.1728L381.979 92.9064L411.494 131.548Z" fill="#3E404C"/>
<path d="M282.307 47C289.208 47 295.6 48.7835 301.484 52.3505C307.367 55.806 312.062 60.8221 315.569 67.3987C319.19 73.8639 321 81.4437 321 90.1383V137.875C321 145.124 315.036 151 307.678 151C300.32 151 294.356 145.124 294.356 137.875V91.1415C294.356 77.5423 287.737 70.7428 274.5 70.7428C269.069 70.7428 264.374 72.4148 260.414 75.7588C256.568 78.9914 254.644 83.3944 254.644 88.9678V137.875C254.644 145.124 248.68 151 241.322 151C233.964 151 228 145.124 228 137.875V62.3386C228 55.2525 233.831 49.508 241.023 49.508H241.362C247.919 49.508 253.389 54.443 253.965 60.8778C257.02 56.642 260.98 53.298 265.845 50.8457C270.71 48.2819 276.197 47 282.307 47Z" fill="#3E404C"/>
<path d="M27 136.399C27 144.352 20.9558 150.8 13.5 150.8C6.04415 150.8 0 144.352 0 136.399V14.4012C0 6.44765 6.04415 0 13.5 0C20.9558 0 27 6.44765 27 14.4012V136.399Z" fill="#3E404C"/>
<path d="M37 99C37 70.3578 60.077 47 88.7143 47C112.888 47 133.099 63.6443 138.812 86.061L171.018 86.061L171.351 86.0658C178.337 86.243 183.946 91.9658 183.946 99C183.946 106.034 178.337 111.758 171.351 111.935L171.018 111.939L143.817 111.939C148.283 119.833 156.703 125.122 166.286 125.122C180.49 125.122 192.143 113.503 192.143 99C192.143 84.7234 180.851 73.2419 166.95 72.8865L166.286 72.8779C163.006 72.8779 159.897 73.4885 157.043 74.5926C150.383 77.1691 142.897 73.8547 140.323 67.1895C137.748 60.5242 141.06 53.0326 147.72 50.456C153.499 48.2204 159.765 47 166.286 47L166.956 47.0048C195.282 47.3656 218 70.5816 218 99C218 127.642 194.923 151 166.286 151C142.112 151 121.901 134.356 116.188 111.939H83.9823C76.8421 111.939 71.0538 106.146 71.0538 99C71.0538 91.8541 76.8421 86.061 83.9823 86.061L111.184 86.061C106.718 78.1665 98.2971 72.878 88.7143 72.8779C74.5101 72.8779 62.8571 84.4967 62.8571 99C62.8572 113.503 74.5101 125.122 88.7143 125.122C91.994 125.122 95.1031 124.512 97.9571 123.407C104.617 120.831 112.103 124.145 114.677 130.811C117.252 137.476 113.94 144.967 107.28 147.544C101.501 149.78 95.2348 151 88.7143 151C60.0771 151 37.0001 127.642 37 99Z" fill="#8032FF"/>
</svg>
